<svg width="123" height="37" viewBox="0 0 123 37" fill="none" xmlns="http://www.w3.org/2000/svg">
<path d="M0.648 4.144C0.936 3.352 1.488 3.004 2.304 3.1C3.144 3.196 3.564 3.7 3.564 4.612V12.028C3.564 14.86 3.528 19.492 3.456 25.924C3.384 26.524 3.648 26.908 4.248 27.076C7.608 26.764 11.34 26.644 15.444 26.716C15.924 26.86 16.164 27.364 16.164 28.228C16.164 29.068 15.66 29.512 14.652 29.56C12.516 29.488 8.268 29.668 1.908 30.1C0.996 30.124 0.528 29.692 0.504 28.804L0.648 4.144ZM26.0626 12.064C31.1026 12.448 33.5146 14.104 33.2986 17.032C32.9146 19.936 31.7026 21.592 29.6626 22C26.4466 22.576 23.3626 22.468 20.4106 21.676C20.4346 23.548 21.0586 24.976 22.2826 25.96C24.3466 26.728 26.4826 26.728 28.6906 25.96C30.2266 25.576 31.8706 25.012 33.6226 24.268C34.4626 24.124 34.8826 24.328 34.8826 24.88C34.8826 25.432 34.6306 25.972 34.1266 26.5C32.3026 28.156 29.3146 29.188 25.1626 29.596C21.9706 29.596 19.7626 28.456 18.5386 26.176C18.0586 25.576 17.7106 24.64 17.4946 23.368C17.3266 21.472 17.3626 19.684 17.6026 18.004C18.2266 14.428 21.0466 12.448 26.0626 12.064ZM20.5186 18.832C23.2786 19.624 25.8586 19.792 28.2586 19.336C29.5546 19.096 30.1906 18.34 30.1666 17.068C30.3106 16.06 29.3626 15.388 27.3226 15.052C26.4826 14.86 25.6306 14.884 24.7666 15.124C23.2066 15.508 22.0786 16.012 21.3826 16.636C20.7346 17.308 20.4466 18.04 20.5186 18.832ZM42.6333 12.208C44.3133 11.584 45.8013 11.524 47.0973 12.028C48.4173 12.532 49.1493 13.708 49.2933 15.556L49.4013 17.392C49.5453 18.376 49.8813 19.576 50.4093 20.992L51.2013 23.512C51.7053 24.52 52.1613 24.508 52.5693 23.476L53.6133 20.56L55.8813 20.632C55.1373 23.272 54.2613 25.48 53.2533 27.256C52.2933 28.648 51.2493 28.516 50.1213 26.86L48.0693 22.108C45.6693 27.34 43.3773 29.956 41.1933 29.956L39.2853 29.776C37.4853 28.552 36.5853 26.74 36.5853 24.34C36.5853 20.26 37.9293 16.672 40.6173 13.576C41.2173 12.88 41.8893 12.424 42.6333 12.208ZM39.4653 25.06C39.4893 26.332 40.1733 26.884 41.5173 26.716C42.0213 26.644 42.4413 26.344 42.7773 25.816C45.2253 22.192 46.5213 19.3 46.6653 17.14C46.6173 15.364 45.7413 14.524 44.0373 14.62C41.0613 16.468 39.5373 19.948 39.4653 25.06ZM64.6481 1.3C66.2081 0.891998 67.3841 1.036 68.1761 1.732C68.8961 2.452 69.4601 3.304 69.8681 4.288C70.9001 6.496 71.6921 8.752 72.2441 11.056C72.3401 11.584 72.0641 11.932 71.4161 12.1C70.7681 12.268 70.2761 12.076 69.9401 11.524C68.2841 7.18 67.1801 4.696 66.6281 4.072C65.9321 3.88 65.5601 4.096 65.5121 4.72C65.2001 7.72 64.9961 10.372 64.9001 12.676L64.8641 13.612L70.7681 13.648C71.2721 13.888 71.4881 14.368 71.4161 15.088C71.3681 15.808 71.0561 16.216 70.4801 16.312L64.7921 16.204V21.064C64.8401 23.296 64.9361 25.72 65.0801 28.336C65.1281 29.488 64.7681 30.04 64.0001 29.992C63.2561 29.944 62.7761 29.62 62.5601 29.02C62.2481 27.724 62.1161 25.552 62.1641 22.504V16.168L57.3401 16.132C56.7401 16.012 56.4881 15.544 56.5841 14.728C56.6801 13.888 56.9321 13.468 57.3401 13.468L62.2721 13.576C62.2241 12.784 62.4041 9.328 62.8121 3.208C63.0521 2.272 63.6641 1.636 64.6481 1.3ZM75.0541 11.272C75.8461 11.416 76.2421 11.8 76.2421 12.424C76.4581 16.768 76.9861 19.036 77.8261 19.228C79.3381 19.204 81.3661 16.768 83.9101 11.92C84.0541 11.536 84.3661 11.32 84.8461 11.272C85.8781 11.176 86.5381 11.536 86.8261 12.352L86.7541 33.196C86.6581 34.18 85.7221 34.972 83.9461 35.572C82.1941 36.196 80.2141 36.304 78.0061 35.896C75.7741 35.464 74.2621 33.976 73.4701 31.432C73.0141 29.656 72.9181 28.12 73.1821 26.824C73.4701 25.144 73.9021 24.304 74.4781 24.304C75.1501 24.28 75.5581 24.556 75.7021 25.132L75.4501 26.68C75.4261 29.44 76.0981 31.384 77.4661 32.512C78.0661 32.944 78.6661 33.208 79.2661 33.304C82.5061 33.4 84.1861 32.848 84.3061 31.648L84.3421 20.128V16.744C82.6141 19.528 80.8981 21.22 79.1941 21.82C78.1861 22.3 77.0821 22.264 75.8821 21.712C74.5621 21.232 73.8061 18.316 73.6141 12.964C73.8061 11.692 74.2861 11.128 75.0541 11.272ZM96.8673 12.064C101.907 12.448 104.319 14.104 104.103 17.032C103.719 19.936 102.507 21.592 100.467 22C97.2513 22.576 94.1673 22.468 91.2153 21.676C91.2393 23.548 91.8633 24.976 93.0873 25.96C95.1513 26.728 97.2873 26.728 99.4953 25.96C101.031 25.576 102.675 25.012 104.427 24.268C105.267 24.124 105.687 24.328 105.687 24.88C105.687 25.432 105.435 25.972 104.931 26.5C103.107 28.156 100.119 29.188 95.9673 29.596C92.7753 29.596 90.5673 28.456 89.3433 26.176C88.8633 25.576 88.5153 24.64 88.2993 23.368C88.1313 21.472 88.1673 19.684 88.4073 18.004C89.0313 14.428 91.8513 12.448 96.8673 12.064ZM91.3233 18.832C94.0833 19.624 96.6633 19.792 99.0633 19.336C100.359 19.096 100.995 18.34 100.971 17.068C101.115 16.06 100.167 15.388 98.1273 15.052C97.2873 14.86 96.4353 14.884 95.5713 15.124C94.0113 15.508 92.8833 16.012 92.1873 16.636C91.5393 17.308 91.2513 18.04 91.3233 18.832ZM108.686 11.488C109.526 11.392 110.03 11.728 110.198 12.496L110.162 19.012C112.082 14.884 114.65 12.7 117.866 12.46C120.89 12.1 122.402 12.532 122.402 13.756C122.354 14.62 121.43 15.088 119.63 15.16C119.15 15.232 118.334 15.412 117.182 15.7C114.11 16.828 111.77 20.908 110.162 27.94C109.994 29.26 109.478 29.92 108.614 29.92C107.75 29.92 107.27 29.164 107.174 27.652L107.21 15.376V13.072C107.378 12.112 107.87 11.584 108.686 11.488Z" fill="#00927A"/>
</svg>
